<svg viewBox="0 0 64 64" xmlns="http://www.w3.org/2000/svg"><circle cx="60.74" cy="20.987" r="1.069"/><circle cx="55.74" cy="14.987" r="1.069"/><circle cx="57.74" cy="11.987" r="1.069"/><circle cx="58.74" cy="5.987" r="1.069"/><g fill="none"><path d="m12.178 35.058a11.886 11.886 0 0 1 -6.178-9.058s-11 13 0 27c0 0 1.905-7.018 6.624-9.5" stroke="#000" stroke-linecap="round" stroke-linejoin="round" stroke-width="2"/><path d="m44.288 21.536a6.91 6.91 0 0 0 -5.37-6.954c-3.178-.718-7.387-.811-12.918.418-13.378 2.973-9.632 6.5-6.416 12.628" stroke="#000" stroke-linecap="round" stroke-linejoin="round" stroke-width="2"/><path d="m63 39.235a24.866 24.866 0 0 1 -10.426-11.295c-3.474-7.82-22.59-11.295-31.274-1.74s-11.3 10.428-11.3 13.035 5.213 5.213 5.213 7.819v7.82c0 5.213 6.951 6.951 12.164 6.082s27.803-5.213 35.623-18.246z" stroke="#000" stroke-linecap="round" stroke-linejoin="round" stroke-width="2"/><path d="m56.139 49.6a21.933 21.933 0 0 0 -.959-2.548c-1.708-3.843 2.042-6.637 6.3-8.485" stroke="#000" stroke-linecap="round" stroke-linejoin="round" stroke-width="2"/><path d="m51.168 26.289c-2.829 1.193-6.309 3.7-4.676 8.6 2.606 7.819-5.213 8.688-2.607 13.032 1.18 1.967 3.606 3.932 5.908 5.495" stroke="#000" stroke-linecap="round" stroke-linejoin="round" stroke-width="2"/></g><circle cx="52.405" cy="36.322" r="1.405"/><path d="m25 34s-6 0-5 6 5 13 11 6 8 0 8 0" fill="none" stroke="#000" stroke-linecap="round" stroke-linejoin="round" stroke-width="2"/><path d="m23 54s2.326 5.328 10.663 5.664" fill="none" stroke="#000" stroke-linecap="round" stroke-linejoin="round" stroke-width="2"/><path d="m17 19s7 0 8 4" fill="none" stroke="#000" stroke-linecap="round" stroke-linejoin="round" stroke-width="2"/><path d="m27.242 14.97c1.246.914 3.715 3.055 3.535 5.551" fill="#9dc1e4" stroke="#000" stroke-linecap="round" stroke-linejoin="round" stroke-width="2"/><path d="m36.958 14.427c.366 1.027 1.213 4.055-.691 5.984" fill="#9dc1e4" stroke="#000" stroke-linecap="round" stroke-linejoin="round" stroke-width="2"/></svg>