<svg xmlns="http://www.w3.org/2000/svg" xmlns:xlink="http://www.w3.org/1999/xlink" width="500" zoomAndPan="magnify" viewBox="0 0 375 374.999991" height="500" preserveAspectRatio="xMidYMid meet" version="1.0"><defs><filter x="0%" y="0%" width="100%" height="100%" id="67679a8b19"><feColorMatrix values="0 0 0 0 1 0 0 0 0 1 0 0 0 0 1 0 0 0 1 0" color-interpolation-filters="sRGB"/></filter><g/><mask id="d4670a6800"><g filter="url(#67679a8b19)"><rect x="-37.5" width="450" fill="#000000" y="-37.499999" height="449.999989" fill-opacity="0.26"/></g></mask><clipPath id="7283d3387c"><path d="M 1 1 L 140.441406 1 L 140.441406 107.238281 L 1 107.238281 Z M 1 1 " clip-rule="nonzero"/></clipPath><clipPath id="4f94474aa9"><rect x="0" width="141" y="0" height="108"/></clipPath><clipPath id="bbd7098ace"><path d="M 138 77.277344 L 236.90625 77.277344 L 236.90625 203.277344 L 138 203.277344 Z M 138 77.277344 " clip-rule="nonzero"/></clipPath><clipPath id="3b7d5a3f26"><path d="M 176 291 L 186 291 L 186 301 L 176 301 Z M 176 291 " clip-rule="nonzero"/></clipPath><clipPath id="cc49c0e03b"><path d="M 201.84375 280.929688 L 211.292969 306.222656 L 167.730469 322.492188 L 158.285156 297.199219 Z M 201.84375 280.929688 " clip-rule="nonzero"/></clipPath><clipPath id="9c2a58c7d6"><path d="M 201.84375 280.929688 L 211.292969 306.222656 L 167.730469 322.492188 L 158.285156 297.199219 Z M 201.84375 280.929688 " clip-rule="nonzero"/></clipPath><clipPath id="0b867c9818"><path d="M 197 295 L 208 295 L 208 306 L 197 306 Z M 197 295 " clip-rule="nonzero"/></clipPath><clipPath id="eed5cc574a"><path d="M 201.84375 280.929688 L 211.292969 306.222656 L 167.730469 322.492188 L 158.285156 297.199219 Z M 201.84375 280.929688 " clip-rule="nonzero"/></clipPath><clipPath id="5955cce2b1"><path d="M 201.84375 280.929688 L 211.292969 306.222656 L 167.730469 322.492188 L 158.285156 297.199219 Z M 201.84375 280.929688 " clip-rule="nonzero"/></clipPath><clipPath id="7ec14e4e52"><path d="M 184 302 L 194 302 L 194 313 L 184 313 Z M 184 302 " clip-rule="nonzero"/></clipPath><clipPath id="a7fd614e25"><path d="M 201.84375 280.929688 L 211.292969 306.222656 L 167.730469 322.492188 L 158.285156 297.199219 Z M 201.84375 280.929688 " clip-rule="nonzero"/></clipPath><clipPath id="1e7379f93e"><path d="M 201.84375 280.929688 L 211.292969 306.222656 L 167.730469 322.492188 L 158.285156 297.199219 Z M 201.84375 280.929688 " clip-rule="nonzero"/></clipPath><clipPath id="b5b73f0cf4"><path d="M 162 299 L 173 299 L 173 310 L 162 310 Z M 162 299 " clip-rule="nonzero"/></clipPath><clipPath id="50b97757ac"><path d="M 201.84375 280.929688 L 211.292969 306.222656 L 167.730469 322.492188 L 158.285156 297.199219 Z M 201.84375 280.929688 " clip-rule="nonzero"/></clipPath><clipPath id="50feaa2a1c"><path d="M 201.84375 280.929688 L 211.292969 306.222656 L 167.730469 322.492188 L 158.285156 297.199219 Z M 201.84375 280.929688 " clip-rule="nonzero"/></clipPath></defs><g mask="url(#d4670a6800)"><g transform="matrix(1, 0, 0, 1, 107, 103)"><g clip-path="url(#4f94474aa9)"><g clip-path="url(#7283d3387c)"><path fill="#dbc8bd" d="M 13.289062 24.0625 C -0.40625 41.351562 -5.363281 71.054688 13.289062 90.402344 C 31.941406 109.753906 62.898438 102.152344 84.753906 105.605469 C 106.609375 109.054688 133.554688 109.054688 139.070312 78.65625 C 144.609375 48.253906 131.46875 40.652344 94.136719 19.21875 C 56.800781 -2.21875 39.570312 -9.121094 13.289062 24.0625 Z M 13.289062 24.0625 " fill-opacity="1" fill-rule="nonzero"/></g></g></g></g><g clip-path="url(#bbd7098ace)"><path fill="#ab6033" d="M 228.695312 188.875 C 225.253906 184.824219 224.527344 179.148438 225.058594 174.015625 C 225.699219 167.851562 228.300781 162.097656 230.355469 156.316406 C 231.402344 153.371094 232.351562 150.375 232.816406 147.289062 C 233.261719 144.253906 233.363281 141.210938 233.121094 138.15625 C 232.648438 131.941406 230.960938 125.84375 228.660156 120.054688 C 228.378906 119.34375 228.085938 118.640625 227.785156 117.941406 C 227.761719 117.886719 227.730469 117.839844 227.6875 117.800781 C 228.035156 117.285156 228.34375 116.742188 228.609375 116.179688 C 230.160156 112.84375 230.070312 109.046875 229.730469 105.46875 C 229.460938 102.128906 229 98.8125 228.34375 95.527344 C 227.664062 92.371094 226.636719 89.238281 224.953125 86.464844 C 224.117188 85.082031 223.121094 83.824219 221.964844 82.695312 C 220.808594 81.566406 219.53125 80.601562 218.128906 79.796875 C 216.726562 78.992188 215.246094 78.378906 213.6875 77.949219 C 212.125 77.523438 210.539062 77.300781 208.921875 77.277344 C 205.683594 77.265625 202.640625 78.039062 199.800781 79.597656 C 198.40625 80.355469 197.125 81.277344 195.957031 82.351562 C 195.390625 82.878906 194.859375 83.4375 194.367188 84.035156 C 193.824219 84.667969 193.371094 85.347656 192.882812 86.011719 C 192.472656 86.621094 191.941406 87.097656 191.292969 87.445312 L 191.1875 87.492188 L 190.996094 87.5625 C 190.84375 87.613281 190.6875 87.65625 190.53125 87.6875 L 190.433594 87.707031 L 190.363281 87.707031 L 190.226562 87.71875 C 190.0625 87.734375 189.902344 87.742188 189.738281 87.738281 C 189.128906 87.726562 188.535156 87.636719 187.949219 87.46875 C 187.269531 87.296875 186.597656 87.078125 185.929688 86.863281 C 184.578125 86.429688 183.191406 85.996094 181.761719 85.980469 C 180.390625 85.945312 179.171875 86.367188 178.113281 87.238281 C 176.121094 88.882812 175.460938 91.757812 175.804688 94.222656 C 176.222656 97.191406 178.363281 99.601562 180.644531 101.382812 C 181.921875 102.355469 183.25 103.257812 184.628906 104.082031 C 186.292969 105.105469 187.957031 106.125 189.621094 107.140625 L 194.738281 110.269531 C 195.378906 110.65625 196.175781 111.042969 196.585938 111.652344 C 196.996094 112.261719 196.9375 113.058594 196.804688 113.773438 C 196.554688 114.984375 196.183594 116.152344 195.691406 117.285156 L 195.691406 117.308594 L 195.65625 117.390625 L 195.554688 117.617188 C 195.484375 117.785156 195.40625 117.949219 195.332031 118.117188 C 195.183594 118.433594 195.035156 118.746094 194.878906 119.058594 C 194.558594 119.707031 194.222656 120.347656 193.867188 120.976562 C 192.449219 123.519531 190.8125 125.910156 188.960938 128.152344 C 188.214844 129.0625 187.414062 129.917969 186.554688 130.71875 C 186.425781 130.851562 186.363281 131.007812 186.363281 131.191406 C 186.367188 131.378906 186.429688 131.535156 186.5625 131.664062 C 186.691406 131.796875 186.847656 131.863281 187.03125 131.863281 C 187.21875 131.867188 187.375 131.800781 187.507812 131.675781 C 189.433594 129.90625 191.058594 127.789062 192.539062 125.644531 C 194.199219 123.289062 195.609375 120.796875 196.78125 118.167969 C 197.292969 117.039062 197.699219 115.875 198 114.671875 C 198.125 114.175781 198.207031 113.671875 198.242188 113.164062 C 201.714844 113.398438 205.1875 113.402344 208.660156 113.179688 C 209.65625 113.113281 210.644531 113.03125 211.632812 112.925781 C 211.9375 115.027344 212.746094 116.910156 214.066406 118.574219 C 215.988281 120.929688 218.996094 122.40625 222.058594 121.816406 C 223.898438 121.460938 225.511719 120.394531 226.765625 119 C 229.089844 124.519531 230.890625 130.351562 231.589844 136.296875 C 231.953125 139.308594 231.992188 142.324219 231.707031 145.34375 C 231.398438 148.429688 230.597656 151.410156 229.617188 154.34375 C 227.652344 160.191406 224.976562 165.890625 223.972656 172.019531 C 223.128906 177.203125 223.40625 182.859375 226.085938 187.496094 C 227.359375 189.699219 229.203125 191.378906 231.015625 193.125 C 232.578125 194.628906 234.410156 196.367188 234.78125 198.613281 C 234.839844 198.988281 234.851562 199.359375 234.816406 199.734375 C 231.894531 200.523438 228.933594 201.125 225.933594 201.542969 C 224.382812 201.757812 222.824219 201.917969 221.261719 202.027344 C 219.78125 202.128906 218.246094 202.28125 216.765625 202.171875 C 216.214844 202.164062 215.714844 201.996094 215.269531 201.667969 C 214.8125 201.273438 214.675781 200.628906 214.59375 200.046875 C 214.371094 198.496094 214.269531 196.921875 214.109375 195.367188 L 213.105469 185.53125 C 212.460938 179.238281 211.875 172.941406 211.167969 166.660156 C 210.628906 161.90625 209.914062 157.097656 208.234375 152.609375 C 206.613281 148.246094 204.003906 144.230469 200.050781 141.644531 C 195.726562 138.816406 190.320312 138.207031 185.332031 139.152344 C 180.148438 140.136719 175.519531 142.816406 171.726562 146.433594 C 167.871094 150.109375 164.894531 154.632812 162.460938 159.34375 C 159.738281 164.648438 157.566406 170.167969 155.949219 175.90625 C 154.308594 181.71875 153.25 187.636719 152.777344 193.660156 C 152.6875 194.84375 152.625 196.027344 152.578125 197.210938 C 150.707031 196.625 148.957031 195.667969 147.742188 194.078125 C 146.527344 192.492188 145.902344 190.566406 145.6875 188.652344 C 145.417969 186.289062 145.75 183.921875 146.261719 181.625 C 146.820312 179.128906 147.542969 176.675781 148.113281 174.183594 C 149.257812 169.113281 150.015625 163.984375 150.382812 158.800781 C 150.558594 156.300781 150.675781 153.78125 150.621094 151.273438 C 150.570312 149.015625 150.332031 146.703125 149.480469 144.59375 C 148.71875 142.601562 147.4375 141.042969 145.632812 139.910156 C 144.011719 138.925781 142.003906 138.445312 140.136719 138.925781 C 139.675781 139.050781 139.234375 139.226562 138.8125 139.453125 C 138.050781 139.867188 138.730469 141.035156 139.496094 140.621094 C 140.242188 140.21875 141.039062 140.039062 141.882812 140.082031 C 142.738281 140.128906 143.546875 140.34375 144.316406 140.71875 C 145.152344 141.132812 145.894531 141.679688 146.535156 142.359375 C 147.179688 143.039062 147.6875 143.804688 148.058594 144.664062 C 148.960938 146.640625 149.207031 148.867188 149.269531 151.015625 C 149.339844 153.472656 149.226562 155.945312 149.0625 158.398438 C 148.722656 163.5 147.992188 168.542969 146.875 173.53125 C 146.320312 176.007812 145.605469 178.449219 145.039062 180.925781 C 144.5 183.265625 144.105469 185.695312 144.289062 188.105469 C 144.453125 190.1875 144.996094 192.277344 146.109375 194.0625 C 147.335938 195.976562 149.015625 197.324219 151.144531 198.117188 C 151.65625 198.320312 152.183594 198.492188 152.714844 198.636719 C 152.804688 198.660156 152.894531 198.667969 152.988281 198.65625 C 153.0625 198.6875 153.140625 198.707031 153.222656 198.71875 C 163.578125 199.75 173.953125 200.03125 184.351562 199.558594 C 185.617188 199.5 186.886719 199.433594 188.152344 199.351562 C 189.125 199.308594 190.085938 199.1875 191.039062 198.988281 C 192.933594 198.554688 194.949219 197.332031 195.402344 195.308594 C 195.496094 194.902344 195.515625 194.492188 195.464844 194.078125 C 195.414062 193.667969 195.292969 193.273438 195.105469 192.902344 C 194.914062 192.53125 194.667969 192.203125 194.363281 191.921875 C 194.058594 191.636719 193.714844 191.410156 193.332031 191.25 C 192.109375 190.707031 190.753906 190.625 189.492188 190.199219 C 188.992188 190.046875 188.566406 189.777344 188.214844 189.390625 C 187.65625 188.691406 187.691406 187.769531 187.863281 186.9375 C 188.347656 184.578125 189.109375 182.292969 189.828125 180.003906 C 191.136719 175.867188 192.285156 171.625 191.601562 167.273438 C 191.210938 164.730469 190.089844 162.058594 188.199219 160.234375 C 188.671875 159.371094 189.089844 158.484375 189.453125 157.570312 C 189.851562 156.589844 190.203125 155.589844 190.546875 154.597656 C 190.835938 153.773438 189.53125 153.421875 189.246094 154.238281 C 188.664062 155.914062 188.035156 157.734375 187.167969 159.394531 C 186.714844 159.070312 186.230469 158.800781 185.71875 158.582031 C 182.78125 157.355469 178.949219 158.042969 176.707031 160.332031 C 175.59375 161.464844 174.496094 163.46875 175.699219 164.90625 C 176.28125 165.605469 177.367188 165.945312 178.234375 166.089844 C 179.246094 166.261719 180.253906 166.234375 181.253906 166.011719 C 184.027344 165.425781 186.019531 163.628906 187.488281 161.402344 C 189.050781 163.023438 189.941406 165.382812 190.292969 167.519531 C 190.949219 171.519531 189.847656 175.488281 188.652344 179.28125 C 187.980469 181.425781 187.265625 183.5625 186.761719 185.765625 C 186.515625 186.847656 186.253906 187.925781 186.558594 189.007812 C 186.730469 189.660156 187.070312 190.210938 187.574219 190.660156 C 188.546875 191.5 189.839844 191.722656 191.054688 191.984375 C 192.136719 192.210938 193.339844 192.46875 193.894531 193.445312 C 194.851562 195.136719 193.230469 196.816406 191.730469 197.40625 C 189.90625 198.132812 187.78125 198.070312 185.855469 198.171875 C 176.136719 198.683594 166.425781 198.535156 156.730469 197.726562 C 155.792969 197.648438 154.859375 197.558594 153.925781 197.46875 C 154.136719 191.589844 154.921875 185.789062 156.273438 180.066406 C 157.625 174.339844 159.523438 168.800781 161.964844 163.453125 C 164.179688 158.625 166.808594 153.914062 170.300781 149.890625 C 173.683594 145.984375 177.894531 142.738281 182.867188 141.164062 C 187.574219 139.675781 192.917969 139.566406 197.445312 141.722656 C 201.648438 143.726562 204.570312 147.425781 206.398438 151.628906 C 208.273438 155.949219 209.101562 160.683594 209.664062 165.320312 C 210.402344 171.375 210.929688 177.457031 211.554688 183.519531 C 211.878906 186.742188 212.210938 189.960938 212.539062 193.1875 C 212.707031 194.808594 212.875 196.429688 213.039062 198.050781 C 213.171875 199.375 213.121094 201.003906 213.917969 202.144531 C 214.6875 203.238281 216.015625 203.507812 217.277344 203.527344 C 218.792969 203.546875 220.324219 203.4375 221.835938 203.320312 C 224.980469 203.074219 228.097656 202.628906 231.183594 201.980469 C 232.667969 201.667969 234.144531 201.308594 235.609375 200.898438 C 235.855469 200.832031 236.015625 200.675781 236.078125 200.425781 C 236.960938 195.316406 231.546875 192.238281 228.695312 188.875 Z M 225.582031 118.273438 C 224.65625 119.289062 223.535156 119.988281 222.21875 120.378906 C 220.894531 120.742188 219.597656 120.664062 218.328125 120.140625 C 217.042969 119.601562 215.964844 118.792969 215.085938 117.710938 C 214.160156 116.578125 213.523438 115.300781 213.171875 113.878906 C 212.292969 110.464844 212.917969 106.851562 213.777344 103.503906 C 214.648438 100.101562 215.871094 96.828125 217.445312 93.6875 C 218.210938 92.160156 219.050781 90.675781 219.96875 89.234375 C 220.4375 88.5 219.265625 87.824219 218.800781 88.554688 C 216.847656 91.632812 215.242188 94.882812 213.984375 98.304688 C 213.367188 99.984375 212.839844 101.691406 212.40625 103.425781 C 211.933594 105.222656 211.617188 107.050781 211.460938 108.902344 C 211.394531 109.804688 211.394531 110.707031 211.460938 111.605469 C 207.90625 111.964844 204.347656 112.082031 200.777344 111.957031 C 199.890625 111.929688 199 111.878906 198.113281 111.816406 C 197.902344 111.117188 197.503906 110.546875 196.921875 110.109375 C 196.191406 109.578125 195.429688 109.089844 194.640625 108.644531 L 192.152344 107.121094 L 187.132812 104.03125 C 184.449219 102.386719 181.613281 100.828125 179.46875 98.488281 C 178.980469 97.964844 178.550781 97.398438 178.179688 96.789062 C 177.980469 96.460938 177.800781 96.125 177.636719 95.777344 C 177.609375 95.722656 177.585938 95.667969 177.566406 95.613281 C 177.566406 95.597656 177.519531 95.496094 177.511719 95.476562 C 177.457031 95.335938 177.40625 95.203125 177.363281 95.046875 C 177.277344 94.753906 177.207031 94.457031 177.152344 94.15625 C 177.152344 94.089844 177.128906 94.027344 177.121094 93.964844 L 177.109375 93.847656 C 177.089844 93.695312 177.078125 93.542969 177.070312 93.386719 C 177.050781 93.082031 177.050781 92.773438 177.070312 92.46875 C 177.070312 92.328125 177.09375 92.183594 177.109375 92.042969 C 177.105469 92.015625 177.105469 91.992188 177.109375 91.964844 L 177.109375 91.929688 C 177.125 91.84375 177.136719 91.757812 177.152344 91.660156 C 177.207031 91.371094 177.273438 91.085938 177.363281 90.808594 C 177.40625 90.664062 177.453125 90.523438 177.503906 90.382812 L 177.574219 90.203125 C 177.59375 90.164062 177.609375 90.128906 177.625 90.085938 C 177.75 89.820312 177.890625 89.566406 178.046875 89.320312 C 178.117188 89.207031 178.195312 89.097656 178.273438 88.988281 C 178.28125 88.976562 178.289062 88.96875 178.292969 88.957031 L 178.320312 88.929688 L 178.476562 88.742188 C 178.664062 88.535156 178.867188 88.339844 179.089844 88.160156 L 179.113281 88.136719 L 179.144531 88.117188 C 179.203125 88.078125 179.257812 88.035156 179.316406 87.996094 C 179.441406 87.914062 179.574219 87.839844 179.710938 87.769531 C 179.765625 87.738281 179.816406 87.710938 179.871094 87.6875 L 179.957031 87.648438 C 180.089844 87.59375 180.226562 87.546875 180.367188 87.507812 C 180.507812 87.464844 180.636719 87.433594 180.777344 87.40625 L 180.917969 87.382812 L 181.019531 87.382812 C 181.074219 87.382812 181.132812 87.382812 181.195312 87.367188 C 182.523438 87.261719 183.726562 87.617188 185.03125 88.023438 C 186.335938 88.433594 187.65625 88.902344 189.035156 89.0625 C 189.710938 89.15625 190.375 89.117188 191.03125 88.9375 C 191.6875 88.757812 192.285156 88.457031 192.816406 88.035156 C 193.441406 87.472656 193.976562 86.832031 194.421875 86.121094 C 194.851562 85.507812 195.320312 84.925781 195.824219 84.375 C 197.890625 82.128906 200.371094 80.523438 203.261719 79.546875 C 206.148438 78.5625 209.085938 78.367188 212.078125 78.960938 C 215.121094 79.566406 217.824219 80.875 220.183594 82.886719 C 222.511719 84.949219 224.242188 87.429688 225.375 90.328125 C 226.566406 93.273438 227.222656 96.410156 227.6875 99.542969 C 227.914062 101.09375 228.089844 102.679688 228.257812 104.257812 C 228.476562 106.058594 228.585938 107.863281 228.582031 109.675781 C 228.585938 111.4375 228.300781 113.148438 227.730469 114.8125 C 227.25 116.109375 226.535156 117.265625 225.582031 118.273438 Z M 183.183594 163.847656 C 181.683594 164.699219 179.828125 165.125 178.125 164.695312 C 177.464844 164.527344 176.386719 164.199219 176.503906 163.324219 C 176.628906 162.71875 176.886719 162.179688 177.277344 161.703125 C 179.003906 159.460938 182.449219 158.796875 185.023438 159.746094 C 185.550781 159.941406 186.039062 160.207031 186.496094 160.535156 C 185.671875 161.917969 184.566406 163.019531 183.183594 163.847656 Z M 183.183594 163.847656 " fill-opacity="1" fill-rule="nonzero"/></g><g clip-path="url(#3b7d5a3f26)"><g clip-path="url(#cc49c0e03b)"><g clip-path="url(#9c2a58c7d6)"><path fill="#dbc8bd" d="M 185.511719 298.160156 C 185.515625 298.140625 185.515625 298.121094 185.519531 298.101562 C 185.488281 297.265625 184.671875 296.695312 183.910156 296.523438 C 183.21875 296.335938 182.277344 296.515625 182.015625 297.253906 C 181.980469 297.359375 181.976562 297.476562 181.988281 297.585938 C 182.175781 298.542969 183.21875 299.101562 184.144531 299.09375 C 184.738281 299.136719 185.4375 298.785156 185.511719 298.160156 Z M 185.949219 294.695312 C 186.003906 294.1875 185.535156 293.71875 185.054688 293.570312 C 184.105469 293.269531 182.835938 293.542969 182.390625 294.496094 C 182.359375 294.589844 182.34375 294.683594 182.347656 294.78125 C 182.367188 295.472656 183.097656 295.863281 183.722656 295.917969 C 184.542969 296.011719 185.546875 295.722656 185.890625 294.914062 C 185.921875 294.839844 185.941406 294.769531 185.949219 294.695312 Z M 182.410156 299.992188 C 182.476562 299.105469 181.667969 298.382812 180.851562 298.183594 C 180.265625 297.984375 179.421875 298.191406 179.285156 298.859375 C 179.167969 299.796875 180.097656 300.578125 180.96875 300.722656 C 181.542969 300.863281 182.292969 300.621094 182.410156 299.992188 Z M 183.261719 292.277344 C 183.316406 291.90625 183.136719 291.507812 182.769531 291.332031 C 181.78125 290.867188 180.386719 291.339844 180.023438 292.386719 C 179.882812 292.828125 180.179688 293.269531 180.585938 293.4375 C 181.457031 293.796875 182.566406 293.453125 183.089844 292.691406 C 183.183594 292.566406 183.238281 292.425781 183.261719 292.277344 Z M 180.875 295.964844 C 180.972656 295.230469 180.699219 294.433594 180.199219 293.882812 C 179.617188 293.28125 178.910156 292.757812 178.105469 292.480469 C 177.539062 292.203125 176.792969 292.5625 176.703125 293.1875 C 176.582031 293.9375 177.015625 294.65625 176.953125 295.410156 C 176.964844 296.058594 176.550781 296.582031 176.253906 297.125 C 175.976562 297.582031 175.964844 298.265625 176.464844 298.585938 C 176.980469 298.855469 177.597656 298.644531 178.109375 298.472656 C 178.957031 298.09375 179.847656 297.6875 180.445312 296.957031 C 180.6875 296.664062 180.828125 296.320312 180.875 295.964844 Z M 180.875 295.964844 " fill-opacity="1" fill-rule="nonzero"/></g></g></g><g clip-path="url(#0b867c9818)"><g clip-path="url(#eed5cc574a)"><g clip-path="url(#5955cce2b1)"><path fill="#dbc8bd" d="M 206.65625 302.972656 C 206.660156 302.953125 206.664062 302.929688 206.664062 302.910156 C 206.632812 302.074219 205.816406 301.507812 205.054688 301.335938 C 204.363281 301.144531 203.421875 301.328125 203.160156 302.0625 C 203.125 302.171875 203.121094 302.285156 203.132812 302.398438 C 203.320312 303.351562 204.363281 303.910156 205.289062 303.902344 C 205.882812 303.945312 206.582031 303.597656 206.65625 302.972656 Z M 207.09375 299.503906 C 207.148438 298.996094 206.679688 298.53125 206.199219 298.382812 C 205.25 298.078125 203.980469 298.351562 203.539062 299.308594 C 203.503906 299.398438 203.488281 299.496094 203.492188 299.59375 C 203.511719 300.28125 204.242188 300.671875 204.867188 300.730469 C 205.6875 300.820312 206.691406 300.53125 207.035156 299.726562 C 207.066406 299.652344 207.085938 299.578125 207.09375 299.503906 Z M 203.554688 304.800781 C 203.621094 303.917969 202.8125 303.191406 201.996094 302.992188 C 201.410156 302.796875 200.566406 303 200.429688 303.667969 C 200.3125 304.609375 201.242188 305.386719 202.117188 305.535156 C 202.6875 305.671875 203.4375 305.433594 203.554688 304.800781 Z M 204.40625 297.089844 C 204.460938 296.714844 204.28125 296.316406 203.914062 296.140625 C 202.925781 295.675781 201.53125 296.152344 201.167969 297.199219 C 201.027344 297.636719 201.324219 298.078125 201.730469 298.246094 C 202.601562 298.605469 203.710938 298.265625 204.234375 297.5 C 204.328125 297.378906 204.382812 297.234375 204.40625 297.089844 Z M 202.019531 300.773438 C 202.117188 300.039062 201.84375 299.246094 201.34375 298.695312 C 200.761719 298.09375 200.054688 297.570312 199.253906 297.292969 C 198.683594 297.011719 197.9375 297.371094 197.847656 297.996094 C 197.726562 298.746094 198.160156 299.464844 198.097656 300.21875 C 198.109375 300.871094 197.695312 301.394531 197.398438 301.933594 C 197.121094 302.390625 197.113281 303.074219 197.609375 303.394531 C 198.125 303.664062 198.742188 303.457031 199.253906 303.285156 C 200.101562 302.90625 200.992188 302.496094 201.589844 301.765625 C 201.835938 301.472656 201.972656 301.132812 202.019531 300.773438 Z M 202.019531 300.773438 " fill-opacity="1" fill-rule="nonzero"/></g></g></g><g clip-path="url(#7ec14e4e52)"><g clip-path="url(#a7fd614e25)"><g clip-path="url(#1e7379f93e)"><path fill="#dbc8bd" d="M 193.511719 309.96875 C 193.511719 309.949219 193.515625 309.925781 193.515625 309.90625 C 193.484375 309.070312 192.667969 308.503906 191.90625 308.332031 C 191.21875 308.140625 190.273438 308.324219 190.015625 309.058594 C 189.976562 309.167969 189.972656 309.28125 189.988281 309.394531 C 190.171875 310.347656 191.214844 310.90625 192.144531 310.898438 C 192.734375 310.941406 193.433594 310.59375 193.511719 309.96875 Z M 193.945312 306.5 C 194.003906 305.992188 193.53125 305.527344 193.054688 305.378906 C 192.101562 305.074219 190.835938 305.347656 190.390625 306.304688 C 190.355469 306.394531 190.339844 306.492188 190.34375 306.589844 C 190.367188 307.277344 191.09375 307.667969 191.71875 307.726562 C 192.539062 307.816406 193.542969 307.527344 193.886719 306.722656 C 193.917969 306.648438 193.9375 306.574219 193.945312 306.5 Z M 190.40625 311.796875 C 190.472656 310.914062 189.667969 310.1875 188.847656 309.988281 C 188.265625 309.792969 187.421875 309.996094 187.28125 310.664062 C 187.164062 311.605469 188.09375 312.382812 188.96875 312.53125 C 189.539062 312.667969 190.289062 312.429688 190.40625 311.796875 Z M 191.257812 304.085938 C 191.3125 303.710938 191.136719 303.3125 190.765625 303.136719 C 189.78125 302.671875 188.382812 303.148438 188.019531 304.195312 C 187.882812 304.632812 188.179688 305.074219 188.585938 305.242188 C 189.453125 305.601562 190.566406 305.261719 191.085938 304.496094 C 191.179688 304.375 191.238281 304.230469 191.257812 304.085938 Z M 188.871094 307.769531 C 188.96875 307.035156 188.695312 306.242188 188.199219 305.691406 C 187.613281 305.089844 186.910156 304.566406 186.105469 304.289062 C 185.539062 304.007812 184.792969 304.367188 184.703125 304.992188 C 184.578125 305.742188 185.015625 306.460938 184.953125 307.214844 C 184.964844 307.867188 184.550781 308.390625 184.253906 308.929688 C 183.976562 309.386719 183.964844 310.070312 184.460938 310.390625 C 184.976562 310.660156 185.59375 310.453125 186.109375 310.28125 C 186.953125 309.902344 187.847656 309.492188 188.441406 308.761719 C 188.6875 308.46875 188.824219 308.128906 188.871094 307.769531 Z M 188.871094 307.769531 " fill-opacity="1" fill-rule="nonzero"/></g></g></g><g clip-path="url(#b5b73f0cf4)"><g clip-path="url(#50b97757ac)"><g clip-path="url(#50feaa2a1c)"><path fill="#dbc8bd" d="M 172.34375 306.859375 C 172.34375 306.839844 172.347656 306.816406 172.347656 306.796875 C 172.316406 305.960938 171.5 305.394531 170.738281 305.222656 C 170.046875 305.03125 169.105469 305.214844 168.84375 305.949219 C 168.808594 306.058594 168.804688 306.171875 168.816406 306.285156 C 169.003906 307.242188 170.046875 307.796875 170.972656 307.789062 C 171.566406 307.832031 172.265625 307.484375 172.339844 306.859375 Z M 172.777344 303.394531 C 172.832031 302.882812 172.363281 302.417969 171.882812 302.269531 C 170.933594 301.964844 169.664062 302.238281 169.222656 303.195312 C 169.1875 303.285156 169.171875 303.382812 169.175781 303.480469 C 169.195312 304.167969 169.925781 304.558594 170.550781 304.617188 C 171.371094 304.707031 172.375 304.417969 172.71875 303.613281 C 172.75 303.539062 172.769531 303.464844 172.777344 303.394531 Z M 169.238281 308.6875 C 169.304688 307.804688 168.496094 307.078125 167.679688 306.878906 C 167.09375 306.683594 166.25 306.886719 166.113281 307.554688 C 165.996094 308.496094 166.925781 309.273438 167.800781 309.421875 C 168.371094 309.558594 169.121094 309.320312 169.238281 308.6875 Z M 170.089844 300.976562 C 170.144531 300.601562 169.964844 300.203125 169.597656 300.027344 C 168.609375 299.5625 167.214844 300.039062 166.851562 301.085938 C 166.710938 301.523438 167.007812 301.964844 167.414062 302.136719 C 168.285156 302.492188 169.394531 302.152344 169.917969 301.386719 C 170.011719 301.265625 170.066406 301.121094 170.089844 300.976562 Z M 167.703125 304.660156 C 167.800781 303.925781 167.527344 303.132812 167.027344 302.582031 C 166.445312 301.980469 165.738281 301.457031 164.9375 301.179688 C 164.367188 300.898438 163.621094 301.257812 163.53125 301.882812 C 163.410156 302.632812 163.847656 303.351562 163.78125 304.105469 C 163.792969 304.757812 163.382812 305.28125 163.082031 305.820312 C 162.804688 306.277344 162.796875 306.960938 163.292969 307.28125 C 163.808594 307.550781 164.425781 307.34375 164.9375 307.171875 C 165.785156 306.792969 166.675781 306.382812 167.273438 305.652344 C 167.519531 305.359375 167.65625 305.019531 167.703125 304.660156 Z M 167.703125 304.660156 " fill-opacity="1" fill-rule="nonzero"/></g></g></g><g fill="#ab6033" fill-opacity="1"><g transform="translate(113.682461, 254.318947)"><g><path d="M 19.921875 -0.34375 C 19.992188 -0.34375 20.03125 -0.285156 20.03125 -0.171875 C 20.03125 -0.0546875 19.992188 0 19.921875 0 C 19.554688 0 19 -0.0195312 18.25 -0.0625 C 17.488281 -0.09375 16.929688 -0.109375 16.578125 -0.109375 C 16.140625 -0.109375 15.597656 -0.09375 14.953125 -0.0625 C 14.347656 -0.0195312 13.875 0 13.53125 0 C 13.457031 0 13.421875 -0.0546875 13.421875 -0.171875 C 13.421875 -0.285156 13.457031 -0.34375 13.53125 -0.34375 C 14.21875 -0.34375 14.707031 -0.398438 15 -0.515625 C 15.289062 -0.640625 15.4375 -0.863281 15.4375 -1.1875 C 15.4375 -1.476562 15.300781 -1.90625 15.03125 -2.46875 L 12.59375 -7.578125 L 5.8125 -7.578125 L 4.140625 -3.6875 C 3.898438 -3.125 3.78125 -2.601562 3.78125 -2.125 C 3.78125 -0.9375 4.695312 -0.34375 6.53125 -0.34375 C 6.625 -0.34375 6.671875 -0.285156 6.671875 -0.171875 C 6.671875 -0.0546875 6.625 0 6.53125 0 C 6.1875 0 5.691406 -0.0195312 5.046875 -0.0625 C 4.328125 -0.09375 3.703125 -0.109375 3.171875 -0.109375 C 2.703125 -0.109375 2.128906 -0.09375 1.453125 -0.0625 C 0.878906 -0.0195312 0.394531 0 0 0 C -0.09375 0 -0.140625 -0.0546875 -0.140625 -0.171875 C -0.140625 -0.285156 -0.09375 -0.34375 0 -0.34375 C 0.53125 -0.34375 0.976562 -0.441406 1.34375 -0.640625 C 1.71875 -0.835938 2.070312 -1.191406 2.40625 -1.703125 C 2.75 -2.210938 3.128906 -2.957031 3.546875 -3.9375 L 9.53125 -17.96875 C 9.570312 -18.019531 9.648438 -18.046875 9.765625 -18.046875 C 9.878906 -18.046875 9.941406 -18.019531 9.953125 -17.96875 L 16.71875 -3.890625 C 17.351562 -2.503906 17.898438 -1.566406 18.359375 -1.078125 C 18.816406 -0.585938 19.335938 -0.34375 19.921875 -0.34375 Z M 6.078125 -8.171875 L 12.3125 -8.171875 L 9.015625 -15.03125 Z M 6.078125 -8.171875 "/></g></g></g><g fill="#ab6033" fill-opacity="1"><g transform="translate(137.629226, 254.318947)"><g><path d="M 5.390625 -2.40625 C 5.390625 -1.882812 5.441406 -1.5 5.546875 -1.25 C 5.648438 -1 5.847656 -0.832031 6.140625 -0.75 C 6.429688 -0.664062 6.898438 -0.625 7.546875 -0.625 L 10.265625 -0.625 C 11.398438 -0.625 12.332031 -0.96875 13.0625 -1.65625 C 13.789062 -2.351562 14.269531 -3.296875 14.5 -4.484375 C 14.5 -4.535156 14.550781 -4.554688 14.65625 -4.546875 C 14.757812 -4.546875 14.8125 -4.515625 14.8125 -4.453125 C 14.644531 -2.847656 14.5625 -1.503906 14.5625 -0.421875 C 14.5625 -0.273438 14.53125 -0.164062 14.46875 -0.09375 C 14.414062 -0.03125 14.300781 0 14.125 0 L 0.96875 0 C 0.925781 0 0.90625 -0.0546875 0.90625 -0.171875 C 0.90625 -0.285156 0.925781 -0.34375 0.96875 -0.34375 C 1.664062 -0.34375 2.175781 -0.390625 2.5 -0.484375 C 2.820312 -0.578125 3.035156 -0.757812 3.140625 -1.03125 C 3.253906 -1.3125 3.3125 -1.734375 3.3125 -2.296875 L 3.3125 -15.4375 C 3.3125 -16 3.253906 -16.410156 3.140625 -16.671875 C 3.035156 -16.941406 2.820312 -17.128906 2.5 -17.234375 C 2.175781 -17.335938 1.664062 -17.390625 0.96875 -17.390625 C 0.925781 -17.390625 0.90625 -17.445312 0.90625 -17.5625 C 0.90625 -17.675781 0.925781 -17.734375 0.96875 -17.734375 L 2.390625 -17.703125 C 3.179688 -17.671875 3.832031 -17.65625 4.34375 -17.65625 C 4.894531 -17.65625 5.566406 -17.671875 6.359375 -17.703125 L 7.75 -17.734375 C 7.78125 -17.734375 7.796875 -17.675781 7.796875 -17.5625 C 7.796875 -17.445312 7.78125 -17.390625 7.75 -17.390625 C 7.0625 -17.390625 6.550781 -17.335938 6.21875 -17.234375 C 5.894531 -17.128906 5.675781 -16.941406 5.5625 -16.671875 C 5.445312 -16.398438 5.390625 -15.976562 5.390625 -15.40625 Z M 5.390625 -2.40625 "/></g></g></g><g fill="#ab6033" fill-opacity="1"><g transform="translate(156.781271, 254.318947)"><g><path d="M 5.390625 -2.40625 C 5.390625 -1.882812 5.441406 -1.5 5.546875 -1.25 C 5.648438 -1 5.847656 -0.832031 6.140625 -0.75 C 6.429688 -0.664062 6.898438 -0.625 7.546875 -0.625 L 10.265625 -0.625 C 11.398438 -0.625 12.332031 -0.96875 13.0625 -1.65625 C 13.789062 -2.351562 14.269531 -3.296875 14.5 -4.484375 C 14.5 -4.535156 14.550781 -4.554688 14.65625 -4.546875 C 14.757812 -4.546875 14.8125 -4.515625 14.8125 -4.453125 C 14.644531 -2.847656 14.5625 -1.503906 14.5625 -0.421875 C 14.5625 -0.273438 14.53125 -0.164062 14.46875 -0.09375 C 14.414062 -0.03125 14.300781 0 14.125 0 L 0.96875 0 C 0.925781 0 0.90625 -0.0546875 0.90625 -0.171875 C 0.90625 -0.285156 0.925781 -0.34375 0.96875 -0.34375 C 1.664062 -0.34375 2.175781 -0.390625 2.5 -0.484375 C 2.820312 -0.578125 3.035156 -0.757812 3.140625 -1.03125 C 3.253906 -1.3125 3.3125 -1.734375 3.3125 -2.296875 L 3.3125 -15.4375 C 3.3125 -16 3.253906 -16.410156 3.140625 -16.671875 C 3.035156 -16.941406 2.820312 -17.128906 2.5 -17.234375 C 2.175781 -17.335938 1.664062 -17.390625 0.96875 -17.390625 C 0.925781 -17.390625 0.90625 -17.445312 0.90625 -17.5625 C 0.90625 -17.675781 0.925781 -17.734375 0.96875 -17.734375 L 2.390625 -17.703125 C 3.179688 -17.671875 3.832031 -17.65625 4.34375 -17.65625 C 4.894531 -17.65625 5.566406 -17.671875 6.359375 -17.703125 L 7.75 -17.734375 C 7.78125 -17.734375 7.796875 -17.675781 7.796875 -17.5625 C 7.796875 -17.445312 7.78125 -17.390625 7.75 -17.390625 C 7.0625 -17.390625 6.550781 -17.335938 6.21875 -17.234375 C 5.894531 -17.128906 5.675781 -16.941406 5.5625 -16.671875 C 5.445312 -16.398438 5.390625 -15.976562 5.390625 -15.40625 Z M 5.390625 -2.40625 "/></g></g></g><g fill="#ab6033" fill-opacity="1"><g transform="translate(175.933315, 254.318947)"><g/></g></g><g fill="#ab6033" fill-opacity="1"><g transform="translate(186.545644, 254.318947)"><g><path d="M 5.5625 -2.40625 C 5.5625 -1.800781 5.632812 -1.363281 5.78125 -1.09375 C 5.9375 -0.820312 6.238281 -0.628906 6.6875 -0.515625 C 7.144531 -0.398438 7.859375 -0.34375 8.828125 -0.34375 C 8.878906 -0.34375 8.90625 -0.285156 8.90625 -0.171875 C 8.90625 -0.0546875 8.878906 0 8.828125 0 C 8.046875 0 7.441406 -0.0078125 7.015625 -0.03125 L 4.546875 -0.0625 L 2.609375 -0.03125 C 2.265625 -0.0078125 1.78125 0 1.15625 0 C 1.101562 0 1.078125 -0.0546875 1.078125 -0.171875 C 1.078125 -0.285156 1.101562 -0.34375 1.15625 -0.34375 C 1.84375 -0.34375 2.347656 -0.390625 2.671875 -0.484375 C 2.992188 -0.578125 3.207031 -0.757812 3.3125 -1.03125 C 3.425781 -1.3125 3.484375 -1.734375 3.484375 -2.296875 L 3.484375 -15.4375 C 3.484375 -16 3.425781 -16.410156 3.3125 -16.671875 C 3.207031 -16.941406 2.992188 -17.128906 2.671875 -17.234375 C 2.347656 -17.335938 1.84375 -17.390625 1.15625 -17.390625 C 1.101562 -17.390625 1.078125 -17.445312 1.078125 -17.5625 C 1.078125 -17.675781 1.101562 -17.734375 1.15625 -17.734375 L 2.609375 -17.703125 C 3.398438 -17.671875 4.035156 -17.65625 4.515625 -17.65625 C 4.960938 -17.65625 5.5 -17.679688 6.125 -17.734375 C 6.351562 -17.734375 6.707031 -17.742188 7.1875 -17.765625 C 7.675781 -17.796875 8.097656 -17.8125 8.453125 -17.8125 C 10.210938 -17.8125 11.625 -17.421875 12.6875 -16.640625 C 13.757812 -15.859375 14.296875 -14.671875 14.296875 -13.078125 C 14.296875 -11.847656 13.988281 -10.804688 13.375 -9.953125 C 12.757812 -9.109375 11.972656 -8.476562 11.015625 -8.0625 C 10.066406 -7.644531 9.082031 -7.4375 8.0625 -7.4375 C 7.507812 -7.4375 7.046875 -7.484375 6.671875 -7.578125 C 6.628906 -7.578125 6.609375 -7.625 6.609375 -7.71875 C 6.609375 -7.769531 6.625 -7.820312 6.65625 -7.875 C 6.6875 -7.9375 6.71875 -7.957031 6.75 -7.9375 C 7.03125 -7.863281 7.363281 -7.828125 7.75 -7.828125 C 8.914062 -7.828125 9.90625 -8.234375 10.71875 -9.046875 C 11.539062 -9.859375 11.953125 -11.03125 11.953125 -12.5625 C 11.953125 -14.0625 11.5625 -15.234375 10.78125 -16.078125 C 10.007812 -16.929688 8.988281 -17.359375 7.71875 -17.359375 C 7.09375 -17.359375 6.640625 -17.316406 6.359375 -17.234375 C 6.078125 -17.148438 5.875 -16.96875 5.75 -16.6875 C 5.625 -16.414062 5.5625 -15.976562 5.5625 -15.375 Z M 5.5625 -2.40625 "/></g></g></g><g fill="#ab6033" fill-opacity="1"><g transform="translate(205.953031, 254.318947)"><g><path d="M 13.59375 -4.25 C 13.59375 -4.3125 13.648438 -4.335938 13.765625 -4.328125 C 13.878906 -4.316406 13.9375 -4.285156 13.9375 -4.234375 C 13.757812 -3.003906 13.671875 -1.734375 13.671875 -0.421875 C 13.671875 -0.273438 13.640625 -0.164062 13.578125 -0.09375 C 13.515625 -0.03125 13.394531 0 13.21875 0 L 1.21875 0 C 1.175781 0 1.15625 -0.0546875 1.15625 -0.171875 C 1.15625 -0.285156 1.175781 -0.34375 1.21875 -0.34375 C 1.914062 -0.34375 2.425781 -0.390625 2.75 -0.484375 C 3.070312 -0.578125 3.289062 -0.757812 3.40625 -1.03125 C 3.519531 -1.3125 3.578125 -1.734375 3.578125 -2.296875 L 3.578125 -15.4375 C 3.578125 -16 3.519531 -16.410156 3.40625 -16.671875 C 3.289062 -16.941406 3.070312 -17.128906 2.75 -17.234375 C 2.425781 -17.335938 1.914062 -17.390625 1.21875 -17.390625 C 1.175781 -17.390625 1.15625 -17.445312 1.15625 -17.5625 C 1.15625 -17.675781 1.175781 -17.734375 1.21875 -17.734375 L 12.734375 -17.734375 C 12.910156 -17.734375 13 -17.648438 13 -17.484375 L 13.046875 -13.9375 C 13.046875 -13.875 12.992188 -13.84375 12.890625 -13.84375 C 12.785156 -13.84375 12.734375 -13.875 12.734375 -13.9375 C 12.617188 -14.957031 12.269531 -15.738281 11.6875 -16.28125 C 11.101562 -16.832031 10.335938 -17.109375 9.390625 -17.109375 L 7.828125 -17.109375 C 6.941406 -17.109375 6.351562 -16.984375 6.0625 -16.734375 C 5.78125 -16.492188 5.640625 -16.023438 5.640625 -15.328125 L 5.640625 -9.53125 L 8.90625 -9.53125 C 9.851562 -9.53125 10.539062 -9.691406 10.96875 -10.015625 C 11.394531 -10.335938 11.609375 -10.859375 11.609375 -11.578125 C 11.609375 -11.617188 11.664062 -11.640625 11.78125 -11.640625 C 11.894531 -11.640625 11.953125 -11.617188 11.953125 -11.578125 L 11.921875 -9.21875 C 11.921875 -8.675781 11.929688 -8.257812 11.953125 -7.96875 L 11.96875 -6.546875 C 11.96875 -6.515625 11.910156 -6.5 11.796875 -6.5 C 11.691406 -6.5 11.640625 -6.515625 11.640625 -6.546875 C 11.640625 -7.378906 11.421875 -7.976562 10.984375 -8.34375 C 10.546875 -8.71875 9.835938 -8.90625 8.859375 -8.90625 L 5.640625 -8.90625 L 5.640625 -2.40625 C 5.640625 -1.914062 5.695312 -1.546875 5.8125 -1.296875 C 5.925781 -1.054688 6.125 -0.882812 6.40625 -0.78125 C 6.695312 -0.675781 7.132812 -0.625 7.71875 -0.625 L 9.734375 -0.625 C 10.734375 -0.625 11.5625 -0.941406 12.21875 -1.578125 C 12.882812 -2.210938 13.34375 -3.101562 13.59375 -4.25 Z M 13.59375 -4.25 "/></g></g></g><g fill="#ab6033" fill-opacity="1"><g transform="translate(225.246921, 254.318947)"><g><path d="M 5.5 -17.1875 C 4.332031 -17.1875 3.429688 -16.867188 2.796875 -16.234375 C 2.160156 -15.609375 1.703125 -14.578125 1.421875 -13.140625 C 1.398438 -13.078125 1.335938 -13.050781 1.234375 -13.0625 C 1.128906 -13.070312 1.078125 -13.097656 1.078125 -13.140625 C 1.148438 -13.671875 1.234375 -14.519531 1.328125 -15.6875 C 1.421875 -16.863281 1.46875 -17.753906 1.46875 -18.359375 C 1.46875 -18.453125 1.523438 -18.5 1.640625 -18.5 C 1.753906 -18.5 1.8125 -18.453125 1.8125 -18.359375 C 1.8125 -17.941406 2.320312 -17.734375 3.34375 -17.734375 C 4.96875 -17.679688 6.867188 -17.65625 9.046875 -17.65625 C 10.160156 -17.65625 11.34375 -17.671875 12.59375 -17.703125 L 14.53125 -17.734375 C 15.207031 -17.734375 15.710938 -17.78125 16.046875 -17.875 C 16.378906 -17.96875 16.59375 -18.15625 16.6875 -18.4375 C 16.707031 -18.519531 16.765625 -18.5625 16.859375 -18.5625 C 16.953125 -18.5625 17 -18.519531 17 -18.4375 C 16.9375 -17.894531 16.875 -17.050781 16.8125 -15.90625 C 16.757812 -14.757812 16.734375 -13.835938 16.734375 -13.140625 C 16.734375 -13.097656 16.679688 -13.078125 16.578125 -13.078125 C 16.472656 -13.078125 16.414062 -13.097656 16.40625 -13.140625 C 16.320312 -14.597656 15.984375 -15.632812 15.390625 -16.25 C 14.796875 -16.875 13.875 -17.1875 12.625 -17.1875 C 11.863281 -17.1875 11.316406 -17.148438 10.984375 -17.078125 C 10.660156 -17.003906 10.4375 -16.84375 10.3125 -16.59375 C 10.1875 -16.351562 10.125 -15.945312 10.125 -15.375 L 10.125 -2.296875 C 10.125 -1.710938 10.1875 -1.285156 10.3125 -1.015625 C 10.4375 -0.753906 10.679688 -0.578125 11.046875 -0.484375 C 11.421875 -0.390625 12.015625 -0.34375 12.828125 -0.34375 C 12.859375 -0.34375 12.875 -0.285156 12.875 -0.171875 C 12.875 -0.0546875 12.859375 0 12.828125 0 C 12.179688 0 11.671875 -0.0078125 11.296875 -0.03125 L 9.046875 -0.0625 L 6.890625 -0.03125 C 6.515625 -0.0078125 5.988281 0 5.3125 0 C 5.269531 0 5.25 -0.0546875 5.25 -0.171875 C 5.25 -0.285156 5.269531 -0.34375 5.3125 -0.34375 C 6.101562 -0.34375 6.6875 -0.390625 7.0625 -0.484375 C 7.445312 -0.578125 7.703125 -0.757812 7.828125 -1.03125 C 7.960938 -1.3125 8.03125 -1.734375 8.03125 -2.296875 L 8.03125 -15.4375 C 8.03125 -15.988281 7.96875 -16.378906 7.84375 -16.609375 C 7.71875 -16.847656 7.488281 -17.003906 7.15625 -17.078125 C 6.832031 -17.148438 6.28125 -17.1875 5.5 -17.1875 Z M 5.5 -17.1875 "/></g></g></g><g fill="#ab6033" fill-opacity="1"><g transform="translate(247.264449, 254.318947)"><g><path d="M 4.25 -14.5 C 4.25 -13.78125 4.425781 -13.144531 4.78125 -12.59375 C 5.144531 -12.050781 5.582031 -11.585938 6.09375 -11.203125 C 6.601562 -10.828125 7.320312 -10.363281 8.25 -9.8125 C 9.21875 -9.226562 9.972656 -8.726562 10.515625 -8.3125 C 11.066406 -7.894531 11.535156 -7.375 11.921875 -6.75 C 12.316406 -6.125 12.515625 -5.390625 12.515625 -4.546875 C 12.515625 -3.617188 12.28125 -2.785156 11.8125 -2.046875 C 11.351562 -1.304688 10.675781 -0.722656 9.78125 -0.296875 C 8.894531 0.128906 7.847656 0.34375 6.640625 0.34375 C 5.109375 0.34375 3.742188 0 2.546875 -0.6875 C 2.453125 -0.738281 2.382812 -0.800781 2.34375 -0.875 C 2.3125 -0.957031 2.285156 -1.070312 2.265625 -1.21875 L 1.953125 -5.1875 C 1.929688 -5.269531 1.972656 -5.316406 2.078125 -5.328125 C 2.179688 -5.347656 2.242188 -5.320312 2.265625 -5.25 C 2.648438 -3.851562 3.25 -2.65625 4.0625 -1.65625 C 4.875 -0.664062 5.953125 -0.171875 7.296875 -0.171875 C 8.222656 -0.171875 9 -0.414062 9.625 -0.90625 C 10.25 -1.394531 10.5625 -2.195312 10.5625 -3.3125 C 10.5625 -4.164062 10.367188 -4.898438 9.984375 -5.515625 C 9.609375 -6.128906 9.148438 -6.648438 8.609375 -7.078125 C 8.066406 -7.503906 7.332031 -7.992188 6.40625 -8.546875 C 5.476562 -9.128906 4.757812 -9.613281 4.25 -10 C 3.738281 -10.382812 3.300781 -10.875 2.9375 -11.46875 C 2.582031 -12.070312 2.40625 -12.78125 2.40625 -13.59375 C 2.40625 -14.550781 2.660156 -15.363281 3.171875 -16.03125 C 3.679688 -16.707031 4.351562 -17.210938 5.1875 -17.546875 C 6.019531 -17.878906 6.898438 -18.046875 7.828125 -18.046875 C 9.003906 -18.046875 10.128906 -17.828125 11.203125 -17.390625 C 11.492188 -17.253906 11.640625 -17.085938 11.640625 -16.890625 L 11.796875 -13.484375 C 11.796875 -13.398438 11.742188 -13.347656 11.640625 -13.328125 C 11.535156 -13.316406 11.476562 -13.347656 11.46875 -13.421875 C 11.28125 -14.421875 10.851562 -15.363281 10.1875 -16.25 C 9.519531 -17.144531 8.566406 -17.59375 7.328125 -17.59375 C 6.316406 -17.59375 5.550781 -17.296875 5.03125 -16.703125 C 4.507812 -16.117188 4.25 -15.382812 4.25 -14.5 Z M 4.25 -14.5 "/></g></g></g><g fill="#ab6033" fill-opacity="1"><g transform="translate(154.346285, 280.383848)"><g><path d="M 5 -5.421875 C 5.664062 -5.378906 6.191406 -5.164062 6.578125 -4.78125 C 6.960938 -4.394531 7.15625 -3.90625 7.15625 -3.3125 C 7.15625 -3.144531 7.140625 -2.96875 7.109375 -2.78125 C 7.015625 -2.269531 6.804688 -1.796875 6.484375 -1.359375 C 6.160156 -0.921875 5.757812 -0.570312 5.28125 -0.3125 C 4.800781 -0.0625 4.300781 0.0625 3.78125 0.0625 C 3.46875 0.0625 3.128906 0.046875 2.765625 0.015625 C 2.640625 0.00390625 2.488281 -0.00390625 2.3125 -0.015625 C 2.144531 -0.0234375 1.953125 -0.03125 1.734375 -0.03125 L 0.796875 -0.015625 C 0.628906 -0.00390625 0.410156 0 0.140625 0 C 0.109375 0 0.09375 -0.03125 0.09375 -0.09375 C 0.09375 -0.15625 0.109375 -0.1875 0.140625 -0.1875 C 0.492188 -0.1875 0.765625 -0.210938 0.953125 -0.265625 C 1.148438 -0.328125 1.289062 -0.429688 1.375 -0.578125 C 1.46875 -0.722656 1.539062 -0.953125 1.59375 -1.265625 L 2.859375 -8.375 C 2.890625 -8.5625 2.90625 -8.710938 2.90625 -8.828125 C 2.90625 -9.066406 2.828125 -9.222656 2.671875 -9.296875 C 2.515625 -9.378906 2.226562 -9.421875 1.8125 -9.421875 C 1.769531 -9.421875 1.75 -9.453125 1.75 -9.515625 C 1.75 -9.578125 1.769531 -9.609375 1.8125 -9.609375 L 2.5 -9.59375 C 2.894531 -9.570312 3.191406 -9.5625 3.390625 -9.5625 C 3.578125 -9.5625 3.75 -9.566406 3.90625 -9.578125 C 4.070312 -9.585938 4.207031 -9.597656 4.3125 -9.609375 C 4.582031 -9.640625 4.820312 -9.65625 5.03125 -9.65625 C 5.75 -9.65625 6.28125 -9.507812 6.625 -9.21875 C 6.976562 -8.925781 7.15625 -8.539062 7.15625 -8.0625 C 7.15625 -7.945312 7.132812 -7.773438 7.09375 -7.546875 C 6.976562 -7.046875 6.738281 -6.613281 6.375 -6.25 C 6.019531 -5.894531 5.5625 -5.617188 5 -5.421875 Z M 3.0625 -5.40625 L 3.6875 -5.390625 C 4.46875 -5.390625 5.078125 -5.585938 5.515625 -5.984375 C 5.960938 -6.378906 6.238281 -6.898438 6.34375 -7.546875 C 6.375 -7.722656 6.390625 -7.890625 6.390625 -8.046875 C 6.390625 -8.472656 6.253906 -8.8125 5.984375 -9.0625 C 5.722656 -9.320312 5.296875 -9.453125 4.703125 -9.453125 C 4.441406 -9.453125 4.242188 -9.429688 4.109375 -9.390625 C 3.984375 -9.347656 3.875 -9.242188 3.78125 -9.078125 C 3.695312 -8.921875 3.625 -8.660156 3.5625 -8.296875 Z M 6.25 -2.515625 C 6.269531 -2.722656 6.28125 -2.910156 6.28125 -3.078125 C 6.28125 -3.703125 6.097656 -4.191406 5.734375 -4.546875 C 5.367188 -4.910156 4.84375 -5.097656 4.15625 -5.109375 C 3.789062 -5.117188 3.40625 -5.109375 3 -5.078125 L 2.328125 -1.234375 C 2.296875 -1.097656 2.28125 -0.972656 2.28125 -0.859375 C 2.28125 -0.609375 2.375 -0.429688 2.5625 -0.328125 C 2.75 -0.234375 3.09375 -0.1875 3.59375 -0.1875 C 4.351562 -0.1875 4.957031 -0.394531 5.40625 -0.8125 C 5.851562 -1.238281 6.132812 -1.804688 6.25 -2.515625 Z M 6.25 -2.515625 "/></g></g></g><g fill="#ab6033" fill-opacity="1"><g transform="translate(164.356412, 280.383848)"><g><path d="M 5.65625 -6.09375 C 6.007812 -6.09375 6.1875 -5.828125 6.1875 -5.296875 C 6.1875 -4.441406 5.789062 -3.234375 5 -1.671875 C 4.21875 -0.109375 3.3125 1.28125 2.28125 2.5 C 1.25 3.71875 0.390625 4.328125 -0.296875 4.328125 C -0.460938 4.328125 -0.597656 4.273438 -0.703125 4.171875 C -0.804688 4.078125 -0.847656 3.9375 -0.828125 3.75 C -0.773438 3.519531 -0.597656 3.40625 -0.296875 3.40625 C 0.0351562 3.40625 0.367188 3.363281 0.703125 3.28125 C 1.035156 3.195312 1.316406 3.066406 1.546875 2.890625 C 1.878906 2.660156 2.320312 2.160156 2.875 1.390625 L 2.890625 0.640625 C 2.890625 -1.285156 2.726562 -2.78125 2.40625 -3.84375 C 2.082031 -4.90625 1.644531 -5.4375 1.09375 -5.4375 C 0.757812 -5.4375 0.492188 -5.242188 0.296875 -4.859375 C 0.285156 -4.828125 0.253906 -4.8125 0.203125 -4.8125 C 0.128906 -4.8125 0.0976562 -4.84375 0.109375 -4.90625 C 0.304688 -5.300781 0.507812 -5.59375 0.71875 -5.78125 C 0.925781 -5.976562 1.164062 -6.078125 1.4375 -6.078125 C 1.882812 -6.078125 2.265625 -5.828125 2.578125 -5.328125 C 2.898438 -4.828125 3.140625 -4.144531 3.296875 -3.28125 C 3.460938 -2.414062 3.546875 -1.453125 3.546875 -0.390625 C 3.546875 -0.0234375 3.539062 0.25 3.53125 0.4375 C 3.988281 -0.28125 4.390625 -0.984375 4.734375 -1.671875 C 5.085938 -2.359375 5.3125 -2.910156 5.40625 -3.328125 C 5.457031 -3.578125 5.484375 -3.796875 5.484375 -3.984375 C 5.484375 -4.359375 5.414062 -4.796875 5.28125 -5.296875 C 5.226562 -5.472656 5.203125 -5.59375 5.203125 -5.65625 C 5.203125 -5.78125 5.238281 -5.882812 5.3125 -5.96875 C 5.394531 -6.050781 5.507812 -6.09375 5.65625 -6.09375 Z M 5.65625 -6.09375 "/></g></g></g><g fill="#ab6033" fill-opacity="1"><g transform="translate(173.27491, 280.383848)"><g/></g></g><g fill="#ab6033" fill-opacity="1"><g transform="translate(179.026165, 280.383848)"><g><path d="M 9.359375 -9.609375 C 9.390625 -9.609375 9.40625 -9.578125 9.40625 -9.515625 C 9.40625 -9.453125 9.390625 -9.421875 9.359375 -9.421875 C 9.003906 -9.421875 8.625 -9.34375 8.21875 -9.1875 C 7.8125 -9.03125 7.410156 -8.753906 7.015625 -8.359375 L 4.046875 -5.765625 L 5.59375 -3.0625 C 6.125 -2.132812 6.535156 -1.472656 6.828125 -1.078125 C 7.117188 -0.679688 7.359375 -0.429688 7.546875 -0.328125 C 7.742188 -0.234375 7.992188 -0.1875 8.296875 -0.1875 C 8.328125 -0.1875 8.34375 -0.15625 8.34375 -0.09375 C 8.34375 -0.03125 8.328125 0 8.296875 0 L 7.03125 0 C 6.707031 0 6.5 -0.0195312 6.40625 -0.0625 C 6.320312 -0.113281 6.101562 -0.472656 5.75 -1.140625 C 5.394531 -1.804688 5.195312 -2.171875 5.15625 -2.234375 L 3.421875 -5.234375 L 2.859375 -4.75 L 2.25 -1.25 C 2.1875 -0.875 2.15625 -0.65625 2.15625 -0.59375 C 2.15625 -0.4375 2.210938 -0.328125 2.328125 -0.265625 C 2.453125 -0.210938 2.691406 -0.1875 3.046875 -0.1875 C 3.066406 -0.1875 3.078125 -0.15625 3.078125 -0.09375 C 3.078125 -0.03125 3.066406 0 3.046875 0 C 2.796875 0 2.601562 -0.00390625 2.46875 -0.015625 L 1.65625 -0.03125 L 0.765625 -0.015625 C 0.617188 -0.00390625 0.421875 0 0.171875 0 C 0.140625 0 0.125 -0.03125 0.125 -0.09375 C 0.125 -0.15625 0.140625 -0.1875 0.171875 -0.1875 C 0.503906 -0.1875 0.753906 -0.210938 0.921875 -0.265625 C 1.097656 -0.316406 1.226562 -0.414062 1.3125 -0.5625 C 1.394531 -0.707031 1.460938 -0.9375 1.515625 -1.25 L 2.78125 -8.359375 C 2.8125 -8.546875 2.828125 -8.707031 2.828125 -8.84375 C 2.828125 -9.070312 2.753906 -9.222656 2.609375 -9.296875 C 2.472656 -9.378906 2.207031 -9.421875 1.8125 -9.421875 C 1.789062 -9.421875 1.78125 -9.453125 1.78125 -9.515625 C 1.78125 -9.578125 1.789062 -9.609375 1.8125 -9.609375 L 2.421875 -9.59375 C 2.796875 -9.570312 3.09375 -9.5625 3.3125 -9.5625 C 3.53125 -9.5625 3.835938 -9.570312 4.234375 -9.59375 L 4.859375 -9.609375 C 4.878906 -9.609375 4.890625 -9.578125 4.890625 -9.515625 C 4.890625 -9.453125 4.878906 -9.421875 4.859375 -9.421875 C 4.515625 -9.421875 4.257812 -9.390625 4.09375 -9.328125 C 3.925781 -9.265625 3.800781 -9.160156 3.71875 -9.015625 C 3.632812 -8.867188 3.5625 -8.640625 3.5 -8.328125 L 2.921875 -5.078125 L 6.71875 -8.453125 C 7.101562 -8.828125 7.296875 -9.078125 7.296875 -9.203125 C 7.296875 -9.285156 7.238281 -9.34375 7.125 -9.375 C 7.007812 -9.40625 6.828125 -9.421875 6.578125 -9.421875 C 6.554688 -9.421875 6.546875 -9.453125 6.546875 -9.515625 C 6.546875 -9.578125 6.554688 -9.609375 6.578125 -9.609375 L 7.125 -9.59375 C 7.445312 -9.570312 7.753906 -9.5625 8.046875 -9.5625 C 8.304688 -9.5625 8.59375 -9.570312 8.90625 -9.59375 Z M 9.359375 -9.609375 "/></g></g></g><g fill="#ab6033" fill-opacity="1"><g transform="translate(190.204779, 280.383848)"><g><path d="M 2.359375 0.21875 C 1.753906 0.21875 1.285156 0.00390625 0.953125 -0.421875 C 0.617188 -0.859375 0.453125 -1.429688 0.453125 -2.140625 C 0.453125 -2.441406 0.472656 -2.71875 0.515625 -2.96875 C 0.628906 -3.550781 0.84375 -4.082031 1.15625 -4.5625 C 1.46875 -5.050781 1.847656 -5.4375 2.296875 -5.71875 C 2.753906 -6 3.226562 -6.140625 3.71875 -6.140625 C 4.34375 -6.140625 4.828125 -5.921875 5.171875 -5.484375 C 5.515625 -5.046875 5.6875 -4.488281 5.6875 -3.8125 C 5.6875 -3.539062 5.65625 -3.257812 5.59375 -2.96875 C 5.46875 -2.34375 5.234375 -1.785156 4.890625 -1.296875 C 4.554688 -0.816406 4.164062 -0.441406 3.71875 -0.171875 C 3.269531 0.0859375 2.816406 0.21875 2.359375 0.21875 Z M 2.890625 -0.171875 C 3.347656 -0.171875 3.765625 -0.359375 4.140625 -0.734375 C 4.515625 -1.117188 4.765625 -1.640625 4.890625 -2.296875 C 4.941406 -2.578125 4.96875 -2.851562 4.96875 -3.125 C 4.96875 -3.832031 4.820312 -4.445312 4.53125 -4.96875 C 4.238281 -5.5 3.820312 -5.765625 3.28125 -5.765625 C 2.800781 -5.765625 2.375 -5.566406 2 -5.171875 C 1.625 -4.773438 1.367188 -4.257812 1.234375 -3.625 C 1.171875 -3.351562 1.140625 -3.066406 1.140625 -2.765625 C 1.140625 -2.054688 1.296875 -1.445312 1.609375 -0.9375 C 1.921875 -0.425781 2.347656 -0.171875 2.890625 -0.171875 Z M 2.890625 -0.171875 "/></g></g></g><g fill="#ab6033" fill-opacity="1"><g transform="translate(198.446782, 280.383848)"><g><path d="M 4.375 -6.046875 C 4.863281 -6.046875 5.234375 -5.910156 5.484375 -5.640625 C 5.734375 -5.367188 5.859375 -4.96875 5.859375 -4.4375 C 5.859375 -4.28125 5.84375 -4.097656 5.8125 -3.890625 C 5.71875 -3.203125 5.488281 -2.554688 5.125 -1.953125 C 4.757812 -1.359375 4.316406 -0.878906 3.796875 -0.515625 C 3.285156 -0.160156 2.765625 0.015625 2.234375 0.015625 C 1.878906 0.015625 1.5625 -0.00390625 1.28125 -0.046875 L 0.78125 2.734375 C 0.75 2.910156 0.734375 3.050781 0.734375 3.15625 C 0.734375 3.34375 0.78125 3.476562 0.875 3.5625 C 0.96875 3.65625 1.117188 3.703125 1.328125 3.703125 C 1.378906 3.703125 1.503906 3.691406 1.703125 3.671875 L 1.71875 3.671875 C 1.75 3.671875 1.769531 3.695312 1.78125 3.75 C 1.789062 3.800781 1.773438 3.832031 1.734375 3.84375 L -0.84375 4.234375 C -0.882812 4.242188 -0.910156 4.21875 -0.921875 4.15625 C -0.929688 4.09375 -0.914062 4.054688 -0.875 4.046875 C -0.625 4.003906 -0.441406 3.953125 -0.328125 3.890625 C -0.222656 3.828125 -0.140625 3.722656 -0.078125 3.578125 C -0.0234375 3.429688 0.03125 3.1875 0.09375 2.84375 L 1.390625 -4.421875 L 0.734375 -3.921875 L 0.71875 -3.921875 C 0.6875 -3.921875 0.648438 -3.941406 0.609375 -3.984375 C 0.578125 -4.023438 0.578125 -4.050781 0.609375 -4.0625 C 0.984375 -4.382812 1.257812 -4.617188 1.4375 -4.765625 L 1.65625 -5.9375 C 1.65625 -5.957031 1.710938 -6.023438 1.828125 -6.140625 C 1.953125 -6.265625 2.0625 -6.398438 2.15625 -6.546875 C 2.257812 -6.691406 2.328125 -6.859375 2.359375 -7.046875 C 2.359375 -7.078125 2.378906 -7.09375 2.421875 -7.09375 C 2.441406 -7.09375 2.460938 -7.082031 2.484375 -7.0625 C 2.515625 -7.050781 2.523438 -7.035156 2.515625 -7.015625 L 2.21875 -5.296875 C 3.007812 -5.796875 3.726562 -6.046875 4.375 -6.046875 Z M 5.078125 -3.375 C 5.109375 -3.613281 5.125 -3.835938 5.125 -4.046875 C 5.125 -4.503906 5.023438 -4.863281 4.828125 -5.125 C 4.640625 -5.394531 4.3125 -5.53125 3.84375 -5.53125 C 3.5625 -5.53125 3.285156 -5.484375 3.015625 -5.390625 C 2.753906 -5.296875 2.46875 -5.148438 2.15625 -4.953125 L 1.40625 -0.671875 C 1.75 -0.503906 2.15625 -0.421875 2.625 -0.421875 C 3.3125 -0.421875 3.859375 -0.6875 4.265625 -1.21875 C 4.679688 -1.757812 4.953125 -2.476562 5.078125 -3.375 Z M 5.078125 -3.375 "/></g></g></g><g fill="#ab6033" fill-opacity="1"><g transform="translate(206.857908, 280.383848)"><g><path d="M 4.96875 -5.46875 C 4.96875 -5.15625 4.796875 -4.851562 4.453125 -4.5625 C 4.117188 -4.269531 3.671875 -4.007812 3.109375 -3.78125 C 2.546875 -3.5625 1.941406 -3.40625 1.296875 -3.3125 C 1.242188 -3.050781 1.21875 -2.757812 1.21875 -2.4375 C 1.21875 -1.78125 1.359375 -1.257812 1.640625 -0.875 C 1.929688 -0.5 2.34375 -0.3125 2.875 -0.3125 C 3.46875 -0.3125 3.992188 -0.476562 4.453125 -0.8125 L 4.484375 -0.8125 C 4.515625 -0.8125 4.539062 -0.796875 4.5625 -0.765625 C 4.59375 -0.734375 4.59375 -0.703125 4.5625 -0.671875 C 3.832031 -0.0976562 3.101562 0.1875 2.375 0.1875 C 1.738281 0.1875 1.253906 -0.015625 0.921875 -0.421875 C 0.597656 -0.835938 0.4375 -1.375 0.4375 -2.03125 C 0.4375 -2.269531 0.457031 -2.539062 0.5 -2.84375 C 0.59375 -3.351562 0.804688 -3.863281 1.140625 -4.375 C 1.484375 -4.894531 1.90625 -5.316406 2.40625 -5.640625 C 2.90625 -5.972656 3.425781 -6.140625 3.96875 -6.140625 C 4.28125 -6.140625 4.523438 -6.078125 4.703125 -5.953125 C 4.878906 -5.835938 4.96875 -5.675781 4.96875 -5.46875 Z M 3.3125 -5.71875 C 2.789062 -5.71875 2.363281 -5.507812 2.03125 -5.09375 C 1.695312 -4.6875 1.46875 -4.160156 1.34375 -3.515625 C 2.09375 -3.640625 2.707031 -3.820312 3.1875 -4.0625 C 3.675781 -4.3125 3.96875 -4.617188 4.0625 -4.984375 C 4.082031 -5.035156 4.09375 -5.109375 4.09375 -5.203125 C 4.09375 -5.378906 4.015625 -5.507812 3.859375 -5.59375 C 3.703125 -5.675781 3.519531 -5.71875 3.3125 -5.71875 Z M 3.3125 -5.71875 "/></g></g></g><g fill="#ab6033" fill-opacity="1"><g transform="translate(214.223537, 280.383848)"><g><path d="M 6.1875 -1.15625 C 6.195312 -1.164062 6.210938 -1.171875 6.234375 -1.171875 C 6.265625 -1.171875 6.289062 -1.148438 6.3125 -1.109375 C 6.332031 -1.078125 6.332031 -1.050781 6.3125 -1.03125 C 5.625 -0.25 5.082031 0.140625 4.6875 0.140625 C 4.457031 0.140625 4.257812 0.0664062 4.09375 -0.078125 C 3.925781 -0.234375 3.726562 -0.503906 3.5 -0.890625 L 2.609375 -2.453125 C 2.515625 -2.609375 2.429688 -2.71875 2.359375 -2.78125 C 2.285156 -2.851562 2.191406 -2.890625 2.078125 -2.890625 C 2.046875 -2.890625 1.976562 -2.878906 1.875 -2.859375 L 1.375 -0.09375 C 1.363281 -0.03125 1.320312 0.0195312 1.25 0.0625 C 1.175781 0.101562 1.082031 0.125 0.96875 0.125 C 0.75 0.125 0.640625 0.09375 0.640625 0.03125 L 0.703125 -0.296875 C 0.722656 -0.367188 0.75 -0.488281 0.78125 -0.65625 C 0.820312 -0.832031 0.851562 -0.992188 0.875 -1.140625 L 2.46875 -9.640625 C 2.488281 -9.785156 2.5 -9.878906 2.5 -9.921875 C 2.5 -10.171875 2.390625 -10.296875 2.171875 -10.296875 C 1.972656 -10.296875 1.710938 -10.21875 1.390625 -10.0625 L 1.359375 -10.0625 C 1.316406 -10.0625 1.289062 -10.082031 1.28125 -10.125 C 1.269531 -10.164062 1.28125 -10.195312 1.3125 -10.21875 L 3.203125 -11.140625 L 3.234375 -11.140625 C 3.273438 -11.140625 3.304688 -11.125 3.328125 -11.09375 C 3.359375 -11.0625 3.367188 -11.039062 3.359375 -11.03125 L 2.203125 -4.625 C 2.578125 -5.082031 3.003906 -5.445312 3.484375 -5.71875 C 3.972656 -6 4.46875 -6.140625 4.96875 -6.140625 C 5.25 -6.140625 5.453125 -6.0625 5.578125 -5.90625 C 5.703125 -5.757812 5.765625 -5.585938 5.765625 -5.390625 C 5.765625 -5.304688 5.757812 -5.25 5.75 -5.21875 C 5.675781 -4.851562 5.40625 -4.492188 4.9375 -4.140625 C 4.46875 -3.796875 3.84375 -3.488281 3.0625 -3.21875 L 4.109375 -1.390625 C 4.304688 -1.023438 4.476562 -0.78125 4.625 -0.65625 C 4.78125 -0.53125 4.941406 -0.46875 5.109375 -0.46875 C 5.390625 -0.46875 5.75 -0.695312 6.1875 -1.15625 Z M 4.359375 -5.71875 C 3.804688 -5.71875 3.3125 -5.488281 2.875 -5.03125 C 2.4375 -4.570312 2.125 -3.960938 1.9375 -3.203125 L 1.90625 -3.0625 C 2.882812 -3.289062 3.585938 -3.539062 4.015625 -3.8125 C 4.441406 -4.09375 4.707031 -4.484375 4.8125 -4.984375 C 4.832031 -5.085938 4.84375 -5.164062 4.84375 -5.21875 C 4.84375 -5.363281 4.796875 -5.484375 4.703125 -5.578125 C 4.617188 -5.671875 4.503906 -5.71875 4.359375 -5.71875 Z M 4.359375 -5.71875 "/></g></g></g></svg>