<svg xmlns="http://www.w3.org/2000/svg" xmlns:xlink="http://www.w3.org/1999/xlink" width="500" zoomAndPan="magnify" viewBox="0 0 375 374.999991" height="500" preserveAspectRatio="xMidYMid meet" version="1.0"><defs><g/></defs><path fill="#7f7f7f" d="M 161.109375 175.148438 C 161.039062 175.109375 160.964844 175.074219 160.890625 175.042969 C 157.796875 174.019531 154.605469 176.21875 152.941406 178.769531 C 151.304688 181.019531 150.683594 184.703125 153.019531 186.652344 C 153.363281 186.933594 153.777344 187.109375 154.207031 187.207031 C 157.949219 187.828125 161.414062 184.792969 162.648438 181.402344 C 163.609375 179.296875 163.289062 176.277344 161.109375 175.148438 Z M 149.039062 168.847656 C 147.257812 167.945312 144.910156 169.019531 143.71875 170.570312 C 141.316406 173.621094 140.578125 178.613281 143.46875 181.535156 C 143.753906 181.78125 144.085938 181.964844 144.441406 182.089844 C 146.996094 182.949219 149.417969 180.824219 150.472656 178.625 C 151.929688 175.757812 152.238281 171.707031 149.765625 169.355469 C 149.539062 169.144531 149.296875 168.972656 149.039062 168.847656 Z M 163.5625 188.949219 C 160.417969 187.5 156.671875 189.460938 154.828125 192.171875 C 153.308594 194.027344 152.910156 197.382812 155.152344 198.800781 C 158.429688 200.503906 162.546875 198.171875 164.273438 195.191406 C 165.558594 193.296875 165.703125 190.238281 163.5625 188.949219 Z M 136.542969 175.347656 C 135.253906 174.644531 133.558594 174.746094 132.414062 175.851562 C 129.367188 178.816406 129.199219 184.546875 132.527344 187.296875 C 133.941406 188.402344 135.960938 187.921875 137.128906 186.671875 C 139.625 183.996094 139.894531 179.476562 137.8125 176.539062 C 137.492188 176.027344 137.046875 175.625 136.542969 175.347656 Z M 146.75 189.058594 C 144.207031 187.703125 140.925781 187.628906 138.234375 188.6875 C 135.238281 190 132.363281 191.855469 130.257812 194.410156 C 128.457031 196.09375 128.75 199.300781 130.914062 200.480469 C 133.488281 201.953125 136.710938 201.339844 139.378906 202.597656 C 141.765625 203.4375 143.117188 205.65625 144.6875 207.476562 C 145.980469 209.113281 148.460938 210.082031 150.3125 208.703125 C 152 207.195312 152.078125 204.660156 152.148438 202.554688 C 151.917969 198.949219 151.640625 195.144531 149.789062 191.976562 C 149.054688 190.6875 147.992188 189.722656 146.75 189.058594 Z M 146.75 189.058594 " fill-opacity="1" fill-rule="nonzero"/><path fill="#7f7f7f" d="M 207.535156 104.628906 C 207.464844 104.59375 207.390625 104.558594 207.316406 104.527344 C 204.21875 103.503906 201.03125 105.699219 199.367188 108.253906 C 197.730469 110.5 197.105469 114.183594 199.445312 116.136719 C 199.785156 116.414062 200.199219 116.59375 200.628906 116.691406 C 204.375 117.3125 207.835938 114.273438 209.074219 110.882812 C 210.035156 108.78125 209.710938 105.761719 207.535156 104.628906 Z M 195.464844 98.328125 C 193.679688 97.429688 191.335938 98.503906 190.140625 100.050781 C 187.742188 103.101562 187 108.097656 189.890625 111.015625 C 190.175781 111.261719 190.507812 111.449219 190.863281 111.574219 C 193.417969 112.433594 195.839844 110.308594 196.898438 108.109375 C 198.351562 105.242188 198.664062 101.191406 196.1875 98.839844 C 195.960938 98.625 195.71875 98.457031 195.464844 98.328125 Z M 209.984375 118.433594 C 206.839844 116.984375 203.097656 118.941406 201.25 121.65625 C 199.734375 123.511719 199.332031 126.867188 201.578125 128.285156 C 204.855469 129.988281 208.972656 127.65625 210.695312 124.675781 C 211.980469 122.78125 212.125 119.722656 209.984375 118.433594 Z M 182.96875 104.832031 C 181.675781 104.125 179.980469 104.230469 178.839844 105.335938 C 175.789062 108.296875 175.625 114.03125 178.953125 116.78125 C 180.363281 117.882812 182.382812 117.40625 183.554688 116.15625 C 186.050781 113.476562 186.316406 108.960938 184.234375 106.019531 C 183.914062 105.507812 183.472656 105.109375 182.96875 104.832031 Z M 193.171875 118.542969 C 190.628906 117.1875 187.347656 117.109375 184.65625 118.171875 C 181.664062 119.484375 178.789062 121.339844 176.679688 123.890625 C 174.882812 125.578125 175.175781 128.785156 177.339844 129.960938 C 179.910156 131.4375 183.132812 130.824219 185.804688 132.078125 C 188.191406 132.921875 189.539062 135.140625 191.109375 136.960938 C 192.40625 138.59375 194.886719 139.566406 196.738281 138.1875 C 198.425781 136.675781 198.503906 134.144531 198.570312 132.039062 C 198.34375 128.433594 198.066406 124.628906 196.210938 121.460938 C 195.480469 120.171875 194.414062 119.207031 193.171875 118.542969 Z M 193.171875 118.542969 " fill-opacity="1" fill-rule="nonzero"/><path fill="#7f7f7f" d="M 215.152344 162.070312 C 215.082031 162.03125 215.011719 162 214.9375 161.964844 C 211.839844 160.941406 208.652344 163.140625 206.984375 165.691406 C 205.351562 167.941406 204.726562 171.625 207.0625 173.578125 C 207.40625 173.855469 207.820312 174.035156 208.25 174.132812 C 211.996094 174.753906 215.457031 171.714844 216.691406 168.324219 C 217.652344 166.21875 217.332031 163.199219 215.152344 162.070312 Z M 203.082031 155.769531 C 201.300781 154.867188 198.957031 155.941406 197.761719 157.492188 C 195.359375 160.542969 194.621094 165.535156 197.511719 168.457031 C 197.796875 168.703125 198.128906 168.890625 198.484375 169.011719 C 201.039062 169.875 203.460938 167.746094 204.519531 165.546875 C 205.972656 162.679688 206.28125 158.628906 203.808594 156.277344 C 203.582031 156.066406 203.339844 155.898438 203.082031 155.769531 Z M 217.605469 175.871094 C 214.460938 174.425781 210.714844 176.382812 208.871094 179.09375 C 207.351562 180.949219 206.953125 184.304688 209.195312 185.722656 C 212.476562 187.425781 216.59375 185.09375 218.316406 182.113281 C 219.601562 180.21875 219.746094 177.160156 217.605469 175.871094 Z M 190.585938 162.273438 C 189.296875 161.566406 187.601562 161.667969 186.457031 162.777344 C 183.410156 165.738281 183.246094 171.46875 186.570312 174.21875 C 187.984375 175.324219 190.003906 174.84375 191.175781 173.59375 C 193.671875 170.917969 193.9375 166.398438 191.855469 163.460938 C 191.535156 162.949219 191.089844 162.546875 190.585938 162.273438 Z M 200.792969 175.980469 C 198.25 174.628906 194.96875 174.550781 192.277344 175.609375 C 189.28125 176.921875 186.410156 178.777344 184.300781 181.332031 C 182.503906 183.015625 182.792969 186.222656 184.957031 187.402344 C 187.53125 188.875 190.753906 188.261719 193.421875 189.519531 C 195.8125 190.359375 197.160156 192.578125 198.730469 194.402344 C 200.023438 196.035156 202.507812 197.003906 204.359375 195.628906 C 206.042969 194.117188 206.121094 191.582031 206.191406 189.476562 C 205.960938 185.875 205.6875 182.066406 203.832031 178.902344 C 203.097656 177.613281 202.035156 176.644531 200.792969 175.980469 Z M 200.792969 175.980469 " fill-opacity="1" fill-rule="nonzero"/><path fill="#7f7f7f" d="M 174.910156 234.992188 C 174.839844 234.953125 174.769531 234.917969 174.695312 234.886719 C 171.597656 233.863281 168.40625 236.0625 166.742188 238.613281 C 165.109375 240.863281 164.484375 244.542969 166.820312 246.496094 C 167.164062 246.777344 167.578125 246.953125 168.007812 247.050781 C 171.75 247.671875 175.214844 244.636719 176.449219 241.246094 C 177.410156 239.140625 177.089844 236.121094 174.910156 234.992188 Z M 162.839844 228.6875 C 161.058594 227.789062 158.714844 228.863281 157.519531 230.414062 C 155.117188 233.464844 154.378906 238.457031 157.269531 241.378906 C 157.554688 241.621094 157.886719 241.808594 158.242188 241.933594 C 160.796875 242.792969 163.21875 240.667969 164.273438 238.46875 C 165.730469 235.601562 166.039062 231.550781 163.566406 229.199219 C 163.339844 228.984375 163.097656 228.816406 162.839844 228.6875 Z M 177.363281 248.792969 C 174.21875 247.34375 170.472656 249.304688 168.628906 252.015625 C 167.109375 253.871094 166.710938 257.226562 168.953125 258.644531 C 172.230469 260.347656 176.347656 258.015625 178.074219 255.035156 C 179.359375 253.140625 179.503906 250.082031 177.363281 248.792969 Z M 150.34375 235.191406 C 149.054688 234.488281 147.359375 234.589844 146.214844 235.695312 C 143.167969 238.65625 143 244.390625 146.328125 247.140625 C 147.742188 248.242188 149.761719 247.765625 150.929688 246.515625 C 153.425781 243.839844 153.695312 239.320312 151.613281 236.382812 C 151.292969 235.871094 150.847656 235.46875 150.34375 235.191406 Z M 160.550781 248.902344 C 158.007812 247.546875 154.726562 247.472656 152.035156 248.53125 C 149.039062 249.84375 146.167969 251.699219 144.058594 254.253906 C 142.257812 255.9375 142.550781 259.144531 144.714844 260.324219 C 147.289062 261.796875 150.511719 261.183594 153.179688 262.441406 C 155.566406 263.28125 156.917969 265.5 158.488281 267.320312 C 159.78125 268.957031 162.265625 269.925781 164.113281 268.550781 C 165.800781 267.039062 165.878906 264.503906 165.949219 262.398438 C 165.71875 258.792969 165.445312 254.988281 163.589844 251.820312 C 162.855469 250.535156 161.792969 249.566406 160.550781 248.902344 Z M 160.550781 248.902344 " fill-opacity="1" fill-rule="nonzero"/><g fill="#000000" fill-opacity="1"><g transform="translate(111.553708, 156.470323)"><g><path d="M 29.984375 0 L 19.3125 0 L 19.3125 -0.9375 L 22.6875 -0.9375 L 19.046875 -10.984375 L 7.59375 -10.984375 L 3.953125 -0.9375 L 7.34375 -0.9375 L 7.34375 0 L -0.515625 0 L -0.515625 -0.9375 L 1.40625 -0.9375 C 1.894531 -0.9375 2.222656 -1.179688 2.390625 -1.671875 L 13.84375 -32.796875 L 15.609375 -32.796875 L 27.0625 -1.671875 C 27.238281 -1.179688 27.566406 -0.9375 28.046875 -0.9375 L 29.984375 -0.9375 Z M 13.375 -26.640625 L 8.171875 -12.4375 L 18.53125 -12.4375 Z M 13.375 -26.640625 "/></g></g></g><g fill="#000000" fill-opacity="1"><g transform="translate(141.003405, 156.470323)"><g><path d="M 4.734375 -1.671875 L 4.734375 -32.0625 C 4.734375 -32.550781 4.488281 -32.796875 4 -32.796875 L 1.5625 -32.796875 L 1.5625 -33.71875 L 4.109375 -33.71875 C 6.191406 -33.71875 7.648438 -33.820312 8.484375 -34.03125 L 8.484375 -1.671875 C 8.484375 -1.179688 8.726562 -0.9375 9.21875 -0.9375 L 11.65625 -0.9375 L 11.65625 0 L 1.5625 0 L 1.5625 -0.9375 L 4 -0.9375 C 4.488281 -0.9375 4.734375 -1.179688 4.734375 -1.671875 Z M 4.734375 -1.671875 "/></g></g></g><g fill="#000000" fill-opacity="1"><g transform="translate(154.219351, 156.470323)"><g><path d="M 4.734375 -1.671875 L 4.734375 -32.0625 C 4.734375 -32.550781 4.488281 -32.796875 4 -32.796875 L 1.5625 -32.796875 L 1.5625 -33.71875 L 4.109375 -33.71875 C 6.191406 -33.71875 7.648438 -33.820312 8.484375 -34.03125 L 8.484375 -1.671875 C 8.484375 -1.179688 8.726562 -0.9375 9.21875 -0.9375 L 11.65625 -0.9375 L 11.65625 0 L 1.5625 0 L 1.5625 -0.9375 L 4 -0.9375 C 4.488281 -0.9375 4.734375 -1.179688 4.734375 -1.671875 Z M 4.734375 -1.671875 "/></g></g></g><g fill="#000000" fill-opacity="1"><g transform="translate(167.435297, 156.470323)"><g/></g></g><g fill="#000000" fill-opacity="1"><g transform="translate(180.44312, 156.470323)"><g><path d="M 1.828125 -31.859375 L 1.828125 -32.796875 L 14.515625 -32.796875 C 17.460938 -32.796875 19.953125 -31.898438 21.984375 -30.109375 C 24.015625 -28.316406 25.03125 -25.910156 25.03125 -22.890625 C 25.03125 -19.878906 24.015625 -17.476562 21.984375 -15.6875 C 19.953125 -13.90625 17.460938 -13.015625 14.515625 -13.015625 L 9.265625 -13.015625 L 9.265625 -1.671875 C 9.265625 -1.179688 9.507812 -0.9375 10 -0.9375 L 13.484375 -0.9375 L 13.484375 0 L 1.828125 0 L 1.828125 -0.9375 L 4.265625 -0.9375 C 4.753906 -0.9375 5 -1.179688 5 -1.671875 L 5 -31.234375 C 5 -31.648438 4.753906 -31.859375 4.265625 -31.859375 Z M 14.265625 -31.328125 L 9.265625 -31.328125 L 9.265625 -14.46875 L 14.265625 -14.46875 C 16.304688 -14.46875 17.914062 -15.304688 19.09375 -16.984375 C 20.28125 -18.671875 20.875 -20.640625 20.875 -22.890625 C 20.875 -25.148438 20.28125 -27.117188 19.09375 -28.796875 C 17.914062 -30.484375 16.304688 -31.328125 14.265625 -31.328125 Z M 14.265625 -31.328125 "/></g></g></g><g fill="#000000" fill-opacity="1"><g transform="translate(205.730315, 156.470323)"><g><path d="M 12.59375 -23.109375 C 14.988281 -23.109375 16.878906 -22.3125 18.265625 -20.71875 C 19.648438 -19.125 20.34375 -16.78125 20.34375 -13.6875 C 20.34375 -13.0625 20.3125 -12.367188 20.25 -11.609375 L 6.03125 -11.609375 L 6.03125 -11.234375 C 6.03125 -7.941406 6.628906 -5.347656 7.828125 -3.453125 C 9.023438 -1.566406 10.566406 -0.625 12.453125 -0.625 C 14.347656 -0.625 15.898438 -1.109375 17.109375 -2.078125 C 18.328125 -3.054688 19.164062 -4.445312 19.625 -6.25 L 20.609375 -6.03125 C 20.191406 -3.914062 19.238281 -2.273438 17.75 -1.109375 C 16.257812 0.046875 14.539062 0.625 12.59375 0.625 C 9.570312 0.625 7.0625 -0.429688 5.0625 -2.546875 C 3.070312 -4.660156 2.078125 -7.546875 2.078125 -11.203125 C 2.078125 -14.867188 3.082031 -17.769531 5.09375 -19.90625 C 7.113281 -22.039062 9.613281 -23.109375 12.59375 -23.109375 Z M 16.765625 -15.453125 C 16.765625 -19.722656 15.164062 -21.859375 11.96875 -21.859375 C 10.375 -21.859375 9.007812 -20.988281 7.875 -19.25 C 6.75 -17.519531 6.15625 -15.316406 6.09375 -12.640625 L 16.546875 -12.640625 C 16.691406 -13.828125 16.765625 -14.765625 16.765625 -15.453125 Z M 16.765625 -15.453125 "/></g></g></g><g fill="#000000" fill-opacity="1"><g transform="translate(228.676107, 156.470323)"><g><path d="M 7.1875 -28 L 7.96875 -28 L 7.96875 -22.484375 L 13.171875 -22.484375 L 13.171875 -21.546875 L 7.96875 -21.546875 L 7.96875 -3.90625 C 7.96875 -2.03125 8.488281 -1.09375 9.53125 -1.09375 C 10.007812 -1.09375 10.429688 -1.316406 10.796875 -1.765625 C 11.160156 -2.222656 11.34375 -2.742188 11.34375 -3.328125 C 11.34375 -3.921875 11.289062 -4.476562 11.1875 -5 L 12.171875 -5.15625 C 12.316406 -4.632812 12.390625 -4.0625 12.390625 -3.4375 C 12.390625 -2.1875 12.015625 -1.195312 11.265625 -0.46875 C 10.523438 0.257812 9.546875 0.625 8.328125 0.625 C 7.109375 0.625 6.117188 0.128906 5.359375 -0.859375 C 4.597656 -1.847656 4.21875 -3.332031 4.21875 -5.3125 L 4.21875 -20.8125 C 4.21875 -21.300781 3.972656 -21.546875 3.484375 -21.546875 L 1.046875 -21.546875 L 1.046875 -22.484375 L 3.59375 -22.484375 C 4.695312 -22.484375 5.894531 -24.320312 7.1875 -28 Z M 7.1875 -28 "/></g></g></g><g fill="#000000" fill-opacity="1"><g transform="translate(242.88065, 156.470323)"><g><path d="M 8.84375 -14.109375 L 14.265625 -12.078125 C 15.546875 -11.585938 16.523438 -10.847656 17.203125 -9.859375 C 17.878906 -8.867188 18.21875 -7.769531 18.21875 -6.5625 C 18.21875 -4.6875 17.46875 -3.019531 15.96875 -1.5625 C 14.476562 -0.101562 12.472656 0.625 9.953125 0.625 C 7.441406 0.625 5.078125 0.15625 2.859375 -0.78125 C 3.066406 -1.613281 3.171875 -3.070312 3.171875 -5.15625 L 3.171875 -7.234375 L 4.109375 -7.234375 L 4.46875 -4.53125 C 4.78125 -1.925781 6.601562 -0.625 9.9375 -0.625 C 11.425781 -0.625 12.664062 -1.082031 13.65625 -2 C 14.644531 -2.925781 15.140625 -3.976562 15.140625 -5.15625 C 15.140625 -6.78125 14.148438 -7.957031 12.171875 -8.6875 L 6.765625 -10.71875 C 5.546875 -11.164062 4.625 -11.875 4 -12.84375 C 3.382812 -13.820312 3.078125 -14.921875 3.078125 -16.140625 C 3.078125 -17.972656 3.734375 -19.59375 5.046875 -21 C 6.367188 -22.40625 8.023438 -23.109375 10.015625 -23.109375 C 12.015625 -23.109375 14.265625 -22.640625 16.765625 -21.703125 C 16.554688 -20.867188 16.453125 -19.410156 16.453125 -17.328125 L 16.453125 -15.25 L 15.515625 -15.25 L 15.140625 -17.953125 C 14.867188 -20.453125 13.289062 -21.703125 10.40625 -21.703125 C 9.125 -21.703125 8.066406 -21.300781 7.234375 -20.5 C 6.398438 -19.707031 5.984375 -18.773438 5.984375 -17.703125 C 5.984375 -16.035156 6.9375 -14.835938 8.84375 -14.109375 Z M 8.84375 -14.109375 "/></g></g></g></svg>